<?xml version="1.0" encoding="utf-8"?>
<!-- Generator: Adobe Illustrator 23.0.0, SVG Export Plug-In . SVG Version: 6.00 Build 0)  -->
<svg version="1.1" id="Layer_1" xmlns="http://www.w3.org/2000/svg" xmlns:xlink="http://www.w3.org/1999/xlink" x="0px" y="0px"
	 viewBox="0 0 141.5 71.2" style="enable-background:new 0 0 141.5 71.2;" xml:space="preserve">
<style type="text/css">
	.st0{fill:#08B3FF;}
	.st1{fill:#ED1B24;}
	.st2{fill:#BAD80A;}
	.st3{fill:#F7BF0D;}
	.st4{fill:#FFED08;}
	.st5{fill:#666666;}
</style>
<g>
	<g>
		<path class="st0" d="M44.4,0.3c-1.7,0-3,1.4-3,3V52c0,1.7,1.4,3,3,3c1.7,0,3-1.4,3-3V3.3C47.4,1.6,46,0.3,44.4,0.3z"/>
		<path class="st0" d="M17.9,19.8c-4.3,0-8.3,1.5-11.6,4.3V3.3c0-1.7-1.4-3-3-3s-3,1.4-3,3v34.1c0,4.7,1.8,9.1,5.2,12.5
			c3.3,3.3,7.8,5.2,12.5,5.2s9.1-1.8,12.5-5.2c3.3-3.3,5.2-7.8,5.2-12.5s-1.8-9.1-5.2-12.5C27.1,21.6,22.6,19.8,17.9,19.8z M17.9,49
			c-6.4,0-11.6-5.2-11.6-11.6s5.2-11.6,11.6-11.6S29.5,31,29.5,37.4S24.3,49,17.9,49z"/>
		<path class="st0" d="M118.5,24.9c-3.3-3.3-7.8-5.2-12.5-5.2c-4.7,0-9.1,1.8-12.5,5.2c-3.3,3.3-5.2,7.8-5.2,12.5s1.8,9.1,5.2,12.5
			c3.3,3.3,7.8,5.2,12.5,5.2c2.5,0,4.9-0.5,7.1-1.5c2.2-1,4.1-2.3,5.7-4c1.2-1.2,1.1-3.1-0.1-4.3c-1.2-1.2-3.1-1.1-4.3,0.1
			c-2.2,2.3-5.2,3.6-8.4,3.6c-6.4,0-11.6-5.2-11.6-11.6s5.2-11.6,11.6-11.6c5.3,0,9.8,3.6,11.1,8.5H101c-1.7,0-3,1.4-3,3
			c0,1.7,1.4,3,3,3h19.6c1.7,0,3-1.4,3-3C123.6,32.7,121.8,28.3,118.5,24.9z"/>
		<path class="st0" d="M79.5,19.8c-1.7,0-3,1.4-3,3v17.5c0,4.8-3.9,8.6-8.6,8.6c-4.8,0-8.6-3.9-8.6-8.6V22.8c0-1.7-1.4-3-3-3
			c-1.7,0-3,1.4-3,3v17.5c0,8.1,6.6,14.7,14.7,14.7c8.1,0,14.7-6.6,14.7-14.7V22.8C82.6,21.1,81.2,19.8,79.5,19.8z"/>
	</g>
	<g>
		<path class="st1" d="M133,57.5c-0.3,0-0.6-0.1-0.9-0.3c-0.7-0.5-0.9-1.5-0.4-2.3c2.2-3.3,3.8-7,4.7-10.9c0.2-0.9,1.1-1.4,1.9-1.2
			c0.9,0.2,1.4,1.1,1.2,1.9c-0.9,4.3-2.7,8.4-5.2,12C134.1,57.2,133.6,57.5,133,57.5z"/>
		<path class="st2" d="M133.4,21.1c-0.5,0-1-0.3-1.4-0.7c-2.2-3.4-5-6.2-8.3-8.5c-0.7-0.5-0.9-1.5-0.4-2.3c0.5-0.7,1.5-0.9,2.3-0.4
			c3.6,2.5,6.7,5.7,9.1,9.4c0.5,0.7,0.3,1.8-0.5,2.2C134,21,133.7,21.1,133.4,21.1z"/>
		<path class="st0" d="M138.7,39.3C138.7,39.3,138.7,39.3,138.7,39.3c-0.9,0-1.6-0.7-1.6-1.6c0-4-0.7-7.9-2.2-11.7
			c-0.3-0.8,0.1-1.8,0.9-2.1c0.8-0.3,1.8,0.1,2.1,0.9c1.6,4.1,2.4,8.5,2.4,12.9C140.3,38.6,139.6,39.3,138.7,39.3z"/>
		<path class="st2" d="M127.6,24.1c-0.5,0-1-0.2-1.3-0.7c-1.6-2.3-3.5-4.2-5.7-5.8c-0.7-0.5-0.9-1.5-0.4-2.3
			c0.5-0.7,1.5-0.9,2.3-0.4c2.5,1.8,4.7,4.1,6.4,6.6c0.5,0.7,0.3,1.7-0.4,2.3C128.2,24,127.9,24.1,127.6,24.1z"/>
		<path class="st0" d="M132.2,38.6c-0.9,0-1.6-0.7-1.6-1.6c0-2.7-0.5-5.4-1.5-8c-0.3-0.8,0.1-1.8,1-2.1c0.8-0.3,1.8,0.1,2.1,1
			c1.1,2.9,1.6,6,1.7,9.1C133.9,37.9,133.2,38.6,132.2,38.6C132.3,38.6,132.3,38.6,132.2,38.6z"/>
		<path class="st1" d="M128.1,53.3c-0.3,0-0.6-0.1-0.9-0.3c-0.8-0.5-1-1.5-0.5-2.2c1.5-2.3,2.6-4.8,3.2-7.5c0.2-0.9,1.1-1.4,2-1.2
			c0.9,0.2,1.4,1.1,1.2,2c-0.7,3-2,5.9-3.6,8.5C129.1,53,128.6,53.3,128.1,53.3z"/>
		<path class="st3" d="M118.8,8.9c-0.2,0-0.4,0-0.6-0.1c-3.7-1.6-7.6-2.4-11.6-2.5c-0.9,0-1.6-0.8-1.6-1.7c0-0.9,0.7-1.6,1.6-1.6
			c0,0,0,0,0,0c4.4,0.1,8.7,1,12.8,2.7c0.8,0.3,1.2,1.3,0.9,2.1C120,8.5,119.4,8.9,118.8,8.9z"/>
		<path class="st3" d="M115.6,14.6c-0.2,0-0.4,0-0.6-0.1c-2.6-1-5.2-1.6-8-1.7c-0.9,0-1.6-0.8-1.5-1.7c0-0.9,0.8-1.6,1.7-1.5
			c3.1,0.1,6.1,0.8,9,1.9c0.8,0.3,1.2,1.3,0.9,2.1C116.9,14.2,116.3,14.6,115.6,14.6z"/>
		<path class="st4" d="M88.3,11.5c-0.5,0-1.1-0.3-1.4-0.7C86.4,10,86.7,9,87.4,8.5c3.7-2.4,7.8-4,12.2-4.8c0.9-0.2,1.7,0.4,1.9,1.3
			c0.2,0.9-0.4,1.7-1.3,1.9c-3.9,0.8-7.7,2.2-11,4.4C88.9,11.4,88.6,11.5,88.3,11.5z"/>
		<path class="st4" d="M92.4,16.6c-0.5,0-1.1-0.3-1.4-0.8c-0.5-0.8-0.2-1.8,0.5-2.2c2.7-1.6,5.5-2.8,8.6-3.4
			c0.9-0.2,1.7,0.4,1.9,1.2c0.2,0.9-0.4,1.7-1.2,1.9c-2.7,0.6-5.2,1.6-7.6,3C92.9,16.5,92.6,16.6,92.4,16.6z"/>
	</g>
	<g>
		<path class="st5" d="M9.9,62.9c-0.2-0.1-0.5-0.2-0.8-0.2c-0.3,0-0.7,0.1-1,0.3c0,0.4-0.1,0.9-0.1,1.3c0,0.4-0.1,0.9-0.1,1.3
			c0,0.4-0.1,0.9-0.2,1.3c-0.1,0.5-0.1,0.9-0.2,1.4H7.5c-0.1-0.3-0.1-0.6-0.2-0.8c-0.1-0.3-0.1-0.5-0.2-0.8
			c-0.1-0.3-0.1-0.5-0.2-0.8c-0.1-0.3-0.2-0.6-0.3-0.9c0-0.2-0.2-0.3-0.4-0.4c-0.2-0.1-0.5-0.2-0.9-0.2c-0.2,0-0.4,0-0.6,0.1
			c-0.2,0.1-0.3,0.1-0.4,0.1c-0.1,0.4-0.2,0.8-0.2,1.1C4,66,3.9,66.3,3.9,66.6c-0.1,0.3-0.1,0.6-0.2,0.8c-0.1,0.3-0.1,0.6-0.2,0.9
			H3.4c0-0.1,0-0.3-0.1-0.5c0-0.2-0.1-0.5-0.1-0.8c-0.1-0.4-0.1-0.8-0.2-1.4c-0.1-0.6-0.2-1.2-0.3-2.1c0-0.3-0.2-0.5-0.4-0.7
			c-0.2-0.1-0.5-0.2-0.8-0.2c-0.2,0-0.5,0-0.7,0.1c-0.2,0.1-0.4,0.2-0.5,0.3c0,0.3,0.1,0.7,0.1,1.1c0.1,0.4,0.1,0.8,0.2,1.3
			c0.1,0.4,0.2,0.9,0.3,1.3c0.1,0.4,0.2,0.8,0.3,1.2c0.1,0.4,0.2,0.7,0.3,1c0.1,0.3,0.2,0.5,0.2,0.7c0.1,0.2,0.3,0.3,0.6,0.4
			c0.3,0.1,0.6,0.2,1,0.2c0.3,0,0.6,0,0.8-0.1c0.2-0.1,0.4-0.2,0.6-0.3c0.1-0.4,0.2-0.8,0.3-1.3c0.1-0.5,0.2-1,0.4-1.6
			c0.1,0.5,0.3,1,0.4,1.5c0.1,0.4,0.2,0.8,0.3,1.2c0.1,0.2,0.2,0.3,0.5,0.4c0.3,0.1,0.6,0.2,1,0.2c0.3,0,0.6,0,0.9-0.1
			c0.3-0.1,0.5-0.2,0.6-0.3c0.1-0.2,0.2-0.4,0.3-0.8c0.1-0.3,0.2-0.7,0.3-1.1c0.1-0.4,0.2-0.8,0.3-1.3c0.1-0.4,0.2-0.9,0.2-1.3
			c0.1-0.4,0.1-0.8,0.1-1.1c0-0.3,0.1-0.6,0.1-0.8C10.3,63.2,10.2,63,9.9,62.9z"/>
		<path class="st5" d="M17.3,68.5h-3.1v-1.3h2.3c0.2,0,0.4-0.1,0.5-0.2c0.1-0.1,0.2-0.4,0.2-0.7c0-0.2,0-0.3-0.1-0.5
			c0-0.1-0.1-0.3-0.2-0.3h-2.8v-1.1h2.6c0.2,0,0.4-0.1,0.5-0.2c0.1-0.1,0.2-0.4,0.2-0.7c0-0.2,0-0.3-0.1-0.5c0-0.1-0.1-0.3-0.2-0.4
			h-4c-0.4,0-0.6,0.1-0.8,0.3c-0.2,0.2-0.3,0.5-0.3,0.8v5.2c0,0.4,0.1,0.6,0.3,0.8c0.2,0.2,0.5,0.3,0.8,0.3h3.6
			c0.2,0,0.4-0.1,0.5-0.2c0.1-0.1,0.2-0.4,0.2-0.7c0-0.2,0-0.3-0.1-0.5C17.4,68.7,17.4,68.6,17.3,68.5z"/>
		<path class="st5" d="M24.3,66.2c0.4-0.1,0.6-0.3,0.9-0.6c0.2-0.3,0.3-0.6,0.3-0.9c0-0.7-0.3-1.3-0.8-1.6c-0.6-0.4-1.4-0.5-2.4-0.5
			c-0.4,0-0.9,0-1.3,0.1c-0.4,0-0.8,0.1-1,0.2c-0.2,0.1-0.3,0.1-0.4,0.2c-0.1,0.1-0.1,0.2-0.1,0.4v5.7c0,0.4,0.2,0.7,0.7,0.9
			c0.2,0.1,0.3,0.1,0.5,0.2c0.2,0,0.4,0.1,0.6,0.1c0.2,0,0.4,0,0.6,0c0.2,0,0.4,0,0.5,0c1.1,0,2-0.2,2.6-0.6c0.6-0.4,0.9-1,0.9-1.8
			c0-0.5-0.1-0.8-0.4-1.1C25.1,66.5,24.7,66.3,24.3,66.2z M21.5,64.2c0.1,0,0.2,0,0.4,0c0.2,0,0.3,0,0.4,0c0.4,0,0.6,0.1,0.8,0.2
			c0.2,0.1,0.3,0.3,0.3,0.5c0,0.3-0.1,0.4-0.2,0.6c-0.2,0.1-0.4,0.2-0.8,0.2h-0.9V64.2z M23.3,68.5c-0.2,0.1-0.5,0.2-0.8,0.2
			c-0.2,0-0.3,0-0.5,0c-0.2,0-0.3,0-0.4-0.1v-1.5h1c0.4,0,0.6,0.1,0.8,0.2c0.2,0.1,0.3,0.3,0.3,0.6C23.6,68.2,23.5,68.4,23.3,68.5z"
			/>
		<path class="st5" d="M36.4,63.5c-0.4-0.3-0.8-0.6-1.3-0.7c-0.5-0.2-1.1-0.2-1.7-0.2c-0.3,0-0.7,0-1.1,0.1c-0.4,0-0.8,0.1-1.1,0.2
			c-0.2,0.1-0.3,0.1-0.4,0.2c-0.1,0.1-0.1,0.2-0.1,0.4v5.7c0,0.4,0.2,0.7,0.7,0.9c0.2,0.1,0.3,0.1,0.5,0.2c0.2,0,0.4,0.1,0.6,0.1
			c0.2,0,0.4,0,0.6,0c0.2,0,0.3,0,0.5,0c0.6,0,1.2-0.1,1.7-0.2c0.5-0.2,0.9-0.4,1.3-0.7c0.4-0.3,0.6-0.7,0.8-1.2
			c0.2-0.5,0.3-1.1,0.3-1.7c0-0.7-0.1-1.3-0.3-1.7C37.1,64.2,36.8,63.8,36.4,63.5z M35.2,67.5c-0.1,0.3-0.2,0.5-0.4,0.7
			c-0.2,0.2-0.4,0.3-0.6,0.4c-0.2,0.1-0.5,0.1-0.8,0.1c-0.1,0-0.2,0-0.4,0c-0.1,0-0.2,0-0.3,0v-4.3c0.1,0,0.2,0,0.4,0
			c0.1,0,0.2,0,0.3,0c0.6,0,1,0.2,1.4,0.6c0.3,0.4,0.5,0.9,0.5,1.7C35.4,66.9,35.3,67.2,35.2,67.5z"/>
		<path class="st5" d="M44.7,68.5h-3.1v-1.3h2.3c0.2,0,0.4-0.1,0.5-0.2c0.1-0.1,0.2-0.4,0.2-0.7c0-0.2,0-0.3-0.1-0.5
			c0-0.1-0.1-0.3-0.2-0.3h-2.8v-1.1h2.6c0.2,0,0.4-0.1,0.5-0.2c0.1-0.1,0.2-0.4,0.2-0.7c0-0.2,0-0.3-0.1-0.5c0-0.1-0.1-0.3-0.2-0.4
			h-4c-0.4,0-0.6,0.1-0.8,0.3c-0.2,0.2-0.3,0.5-0.3,0.8v5.2c0,0.4,0.1,0.6,0.3,0.8c0.2,0.2,0.5,0.3,0.8,0.3h3.6
			c0.2,0,0.4-0.1,0.5-0.2c0.1-0.1,0.2-0.4,0.2-0.7c0-0.2,0-0.3-0.1-0.5C44.8,68.7,44.7,68.6,44.7,68.5z"/>
		<path class="st5" d="M51.8,66.5c-0.4-0.4-1-0.7-1.8-0.9l-0.6-0.2c-0.2-0.1-0.4-0.1-0.5-0.2c-0.1-0.1-0.2-0.2-0.2-0.3
			c0-0.2,0.1-0.3,0.3-0.4c0.2-0.1,0.4-0.2,0.8-0.2c0.4,0,0.7,0,1,0.1c0.3,0.1,0.5,0.2,0.7,0.3c0.1-0.1,0.3-0.2,0.4-0.4
			C52,64.2,52,64,52,63.8c0-0.2-0.1-0.4-0.2-0.6c-0.1-0.2-0.3-0.3-0.5-0.4c-0.2-0.1-0.5-0.2-0.8-0.2c-0.3,0-0.6-0.1-1-0.1
			c-1,0-1.7,0.2-2.2,0.6c-0.5,0.4-0.8,1-0.8,1.7c0,0.4,0.1,0.7,0.2,0.9c0.1,0.2,0.3,0.5,0.5,0.6c0.2,0.2,0.5,0.3,0.8,0.5
			c0.3,0.1,0.6,0.3,1,0.4l0.5,0.2c0.2,0.1,0.4,0.2,0.6,0.3c0.1,0.1,0.2,0.2,0.2,0.4c0,0.2-0.1,0.3-0.2,0.4c-0.2,0.1-0.4,0.2-0.8,0.2
			c-0.4,0-0.8-0.1-1.1-0.2c-0.3-0.1-0.6-0.3-0.8-0.5c-0.2,0.1-0.3,0.2-0.5,0.4c-0.1,0.2-0.2,0.4-0.2,0.6c0,0.2,0.1,0.4,0.2,0.6
			c0.1,0.2,0.3,0.3,0.6,0.4c0.2,0.1,0.5,0.2,0.8,0.3c0.3,0.1,0.7,0.1,1,0.1c1.1,0,1.9-0.2,2.4-0.6c0.5-0.4,0.8-1,0.8-1.7
			C52.4,67.4,52.2,66.9,51.8,66.5z"/>
		<path class="st5" d="M56,62.8c-0.1-0.1-0.2-0.1-0.4-0.2c-0.1,0-0.3,0-0.5,0c-0.2,0-0.4,0-0.6,0c-0.2,0-0.3,0.1-0.4,0.1v6.5
			c0,0.2,0,0.4,0.1,0.5c0,0.1,0.1,0.2,0.2,0.3s0.2,0.1,0.4,0.2c0.1,0,0.3,0,0.5,0c0.2,0,0.4,0,0.6,0c0.2,0,0.3,0,0.4-0.1v-6.5
			c0-0.2,0-0.4-0.1-0.5C56.2,63,56.1,62.9,56,62.8z"/>
		<path class="st5" d="M64.5,65.7h-2.1c-0.2,0-0.4,0.1-0.5,0.2c-0.1,0.1-0.2,0.3-0.2,0.6c0,0.2,0,0.3,0.1,0.5c0,0.1,0.1,0.3,0.1,0.4
			h1.3v1.2c-0.1,0-0.2,0.1-0.3,0.1c-0.1,0-0.3,0-0.5,0c-0.3,0-0.5,0-0.8-0.1c-0.2-0.1-0.5-0.2-0.6-0.4c-0.2-0.2-0.3-0.4-0.4-0.7
			c-0.1-0.3-0.2-0.6-0.2-1c0-0.7,0.2-1.2,0.6-1.6c0.4-0.4,0.9-0.6,1.6-0.6c0.4,0,0.7,0.1,1,0.2c0.3,0.1,0.6,0.2,0.8,0.4
			c0.1-0.1,0.3-0.2,0.4-0.4c0.1-0.2,0.2-0.3,0.2-0.6c0-0.4-0.2-0.7-0.7-1c-0.5-0.2-1.1-0.4-1.8-0.4c-0.5,0-1.1,0.1-1.6,0.2
			c-0.5,0.2-1,0.4-1.4,0.7c-0.4,0.3-0.7,0.7-1,1.2c-0.2,0.5-0.4,1.1-0.4,1.8c0,0.6,0.1,1.2,0.3,1.7c0.2,0.5,0.5,0.9,0.9,1.2
			c0.4,0.3,0.8,0.6,1.3,0.7c0.5,0.2,1.1,0.2,1.7,0.2c0.2,0,0.4,0,0.7,0c0.2,0,0.4-0.1,0.6-0.1c0.2,0,0.4-0.1,0.6-0.2
			c0.2-0.1,0.3-0.1,0.4-0.2c0.2-0.1,0.3-0.2,0.4-0.4c0.1-0.1,0.1-0.3,0.1-0.6v-2.5c0-0.2-0.1-0.4-0.2-0.6
			C64.9,65.7,64.7,65.7,64.5,65.7z"/>
		<path class="st5" d="M73.7,62.8c-0.2-0.1-0.5-0.2-0.8-0.2c-0.2,0-0.4,0-0.5,0c-0.2,0-0.3,0-0.4,0.1v2c0,0.4,0,0.9,0,1.3
			c0,0.4,0,0.9,0.1,1.3l-0.1,0c-0.1-0.3-0.2-0.6-0.3-0.8c-0.1-0.2-0.2-0.5-0.3-0.7l-1.2-2.5c-0.2-0.3-0.4-0.5-0.7-0.6
			c-0.3-0.1-0.6-0.1-0.9-0.1c-0.3,0-0.5,0-0.8,0.1c-0.2,0.1-0.4,0.2-0.5,0.4v6.1c0,0.2,0,0.4,0.1,0.5c0,0.1,0.1,0.2,0.2,0.3
			c0.1,0.1,0.2,0.1,0.3,0.1c0.1,0,0.3,0,0.5,0s0.4,0,0.5,0c0.2,0,0.3,0,0.4-0.1v-1.9c0-0.4,0-0.9,0-1.3c0-0.5,0-0.9-0.1-1.3l0.1,0
			c0.1,0.3,0.2,0.6,0.3,0.8c0.1,0.2,0.2,0.5,0.3,0.7l1.2,2.5c0.2,0.3,0.4,0.6,0.7,0.6c0.3,0.1,0.6,0.1,0.9,0.1c0.3,0,0.6,0,0.8-0.1
			c0.2-0.1,0.4-0.1,0.5-0.3v-6.3C74,63.2,73.9,62.9,73.7,62.8z"/>
		<path class="st5" d="M86,66.5c0-0.2,0-0.3,0-0.5c0-0.1-0.1-0.3-0.1-0.4c-0.1-0.1-0.2-0.2-0.3-0.2c-0.1-0.1-0.3-0.1-0.5-0.1
			c-0.1,0-0.3,0-0.4,0c-0.1,0-0.3,0.1-0.4,0.1c0,0.3,0,0.6,0,0.8c0,0.2-0.1,0.5-0.1,0.6l-1.6-1.5c-0.2-0.2-0.3-0.3-0.4-0.4
			C82,64.9,82,64.8,82,64.7c0-0.2,0.1-0.3,0.2-0.4c0.1-0.1,0.3-0.1,0.5-0.1c0.1,0,0.3,0,0.4,0c0.1,0,0.2,0.1,0.3,0.1
			c0.1-0.1,0.2-0.2,0.2-0.4c0.1-0.1,0.1-0.3,0.1-0.4c0-0.3-0.1-0.5-0.3-0.7c-0.2-0.2-0.6-0.3-1.1-0.3c-0.4,0-0.7,0-1,0.1
			c-0.3,0.1-0.5,0.2-0.7,0.4c-0.2,0.2-0.3,0.4-0.5,0.6c-0.1,0.2-0.2,0.5-0.2,0.7c0,0.2,0,0.4,0.1,0.6c0.1,0.2,0.2,0.4,0.3,0.6
			c-0.2,0.1-0.4,0.2-0.6,0.3c-0.2,0.1-0.3,0.3-0.5,0.5c-0.1,0.2-0.3,0.4-0.4,0.6c-0.1,0.2-0.1,0.5-0.1,0.8c0,0.4,0.1,0.7,0.2,1
			c0.1,0.3,0.3,0.6,0.6,0.8c0.3,0.2,0.6,0.4,0.9,0.5c0.4,0.1,0.8,0.2,1.3,0.2c0.5,0,0.9-0.1,1.3-0.2c0.4-0.1,0.7-0.3,1-0.5l0.2,0.2
			c0.3,0.3,0.6,0.5,1,0.5c0.3,0,0.5-0.1,0.7-0.3c0.2-0.2,0.3-0.4,0.3-0.8l-0.9-0.9C85.8,67.8,86,67.1,86,66.5z M82.5,68.7
			c-0.2,0-0.4,0.1-0.5,0.1c-0.4,0-0.7-0.1-0.9-0.3c-0.2-0.2-0.3-0.4-0.3-0.7c0-0.2,0.1-0.3,0.2-0.5c0.1-0.2,0.3-0.3,0.4-0.4l1.6,1.6
			C82.9,68.6,82.7,68.6,82.5,68.7z"/>
		<path class="st5" d="M99.5,68c0-0.4-0.1-0.9-0.1-1.4c0-0.5-0.1-0.9-0.1-1.3c0-0.4-0.1-0.8-0.1-1.1c0-0.3-0.1-0.6-0.1-0.8
			c0-0.2-0.2-0.4-0.4-0.5c-0.3-0.1-0.6-0.2-1-0.2c-0.2,0-0.5,0-0.6,0.1c-0.2,0-0.3,0.1-0.5,0.2c-0.2,0.4-0.3,1-0.5,1.6
			c-0.2,0.6-0.4,1.3-0.6,2h-0.1c-0.1-0.2-0.1-0.5-0.2-0.7c-0.1-0.3-0.2-0.5-0.3-0.8c-0.1-0.3-0.2-0.5-0.3-0.8
			c-0.1-0.3-0.2-0.5-0.2-0.7c-0.1-0.3-0.3-0.5-0.5-0.7c-0.2-0.1-0.6-0.2-1-0.2c-0.4,0-0.7,0.1-0.9,0.2c-0.2,0.1-0.4,0.2-0.4,0.3
			l-0.4,6.2c0,0.3,0.1,0.5,0.3,0.6c0.2,0.1,0.5,0.2,0.8,0.2c0.2,0,0.3,0,0.5,0c0.2,0,0.3-0.1,0.4-0.1c0-0.5,0-0.9,0.1-1.3
			c0-0.4,0-0.8,0-1.1c0-0.4,0-0.8,0-1.2c0-0.4,0-0.8,0.1-1.3h0.1c0.1,0.3,0.2,0.7,0.3,1.2c0.1,0.4,0.3,1,0.6,1.7
			c0.1,0.2,0.2,0.3,0.4,0.4c0.2,0.1,0.4,0.1,0.7,0.1c0.2,0,0.4,0,0.6-0.1c0.2-0.1,0.3-0.1,0.4-0.2c0.2-0.8,0.4-1.4,0.6-1.9
			c0.2-0.5,0.3-0.9,0.4-1.2h0.1c0,0.5,0,1.1,0.1,1.8c0,0.7,0,1.5,0.1,2.4c0,0.3,0.1,0.5,0.3,0.6c0.2,0.1,0.5,0.2,0.8,0.2
			c0.2,0,0.4,0,0.6-0.1c0.2,0,0.3-0.1,0.4-0.2c0-0.2,0-0.5,0-0.8C99.5,68.8,99.5,68.4,99.5,68z"/>
		<path class="st5" d="M107.8,63.5c-0.4-0.3-0.8-0.6-1.2-0.8c-0.5-0.2-1-0.3-1.5-0.3c-0.5,0-1.1,0.1-1.5,0.3
			c-0.5,0.2-0.9,0.4-1.2,0.8c-0.3,0.3-0.6,0.7-0.8,1.2c-0.2,0.5-0.3,1.1-0.3,1.7c0,0.6,0.1,1.2,0.3,1.7c0.2,0.5,0.5,0.9,0.8,1.2
			c0.3,0.3,0.8,0.6,1.2,0.8c0.5,0.2,1,0.3,1.5,0.3c0.6,0,1.1-0.1,1.5-0.3c0.5-0.2,0.9-0.4,1.2-0.8c0.3-0.3,0.6-0.7,0.8-1.2
			c0.2-0.5,0.3-1.1,0.3-1.7c0-0.6-0.1-1.2-0.3-1.7C108.4,64.2,108.1,63.8,107.8,63.5z M106.3,68.1c-0.3,0.4-0.7,0.6-1.2,0.6
			c-0.5,0-0.9-0.2-1.2-0.6c-0.3-0.4-0.5-0.9-0.5-1.7c0-0.7,0.2-1.3,0.5-1.7c0.3-0.4,0.7-0.5,1.2-0.5c0.5,0,0.9,0.2,1.2,0.6
			c0.3,0.4,0.4,0.9,0.4,1.7C106.7,67.2,106.6,67.7,106.3,68.1z"/>
		<path class="st5" d="M115.5,67.3c0.4-0.2,0.7-0.5,0.9-0.8c0.3-0.4,0.4-0.8,0.4-1.3c0-0.8-0.3-1.5-0.9-1.9
			c-0.6-0.5-1.4-0.7-2.5-0.7c-0.4,0-0.8,0-1.2,0.1c-0.4,0-0.7,0.1-1,0.2c-0.2,0.1-0.3,0.1-0.4,0.2c-0.1,0.1-0.1,0.2-0.1,0.4v5.8
			c0,0.2,0,0.4,0.1,0.5c0,0.1,0.1,0.2,0.2,0.3c0.1,0.1,0.2,0.1,0.4,0.2c0.1,0,0.3,0,0.5,0c0.2,0,0.4,0,0.6,0c0.2,0,0.3,0,0.4-0.1
			v-2.4h0.6l1,1.7c0.1,0.1,0.2,0.2,0.2,0.3c0.1,0.1,0.2,0.2,0.3,0.3c0.1,0.1,0.2,0.1,0.3,0.2c0.1,0,0.3,0.1,0.5,0.1
			c0.3,0,0.5-0.1,0.7-0.2c0.2-0.2,0.4-0.4,0.4-0.7c-0.2-0.3-0.4-0.6-0.7-1C116.1,68.1,115.8,67.7,115.5,67.3z M114.4,65.9
			c-0.2,0.2-0.4,0.2-0.7,0.2h-0.8v-1.8c0.1,0,0.2,0,0.2,0c0.1,0,0.2,0,0.3,0c0.4,0,0.7,0.1,0.9,0.2c0.2,0.2,0.3,0.4,0.3,0.7
			C114.7,65.5,114.6,65.7,114.4,65.9z"/>
		<path class="st5" d="M124.1,68.5h-3.1v-1.3h2.3c0.2,0,0.4-0.1,0.5-0.2c0.1-0.1,0.2-0.4,0.2-0.7c0-0.2,0-0.3-0.1-0.5
			c0-0.1-0.1-0.3-0.2-0.3h-2.8v-1.1h2.6c0.2,0,0.4-0.1,0.5-0.2c0.1-0.1,0.2-0.4,0.2-0.7c0-0.2,0-0.3-0.1-0.5c0-0.1-0.1-0.3-0.2-0.4
			h-4c-0.4,0-0.6,0.1-0.8,0.3c-0.2,0.2-0.3,0.5-0.3,0.8v5.2c0,0.4,0.1,0.6,0.3,0.8c0.2,0.2,0.5,0.3,0.8,0.3h3.6
			c0.2,0,0.4-0.1,0.5-0.2c0.1-0.1,0.2-0.4,0.2-0.7c0-0.2,0-0.3-0.1-0.5C124.2,68.7,124.1,68.6,124.1,68.5z"/>
		<path class="st5" d="M129.9,68c-0.4,0-0.7,0.1-0.9,0.3c-0.2,0.2-0.3,0.5-0.3,0.9c0,0.3,0.1,0.6,0.3,0.9c0.2,0.2,0.5,0.3,0.9,0.3
			c0.4,0,0.7-0.1,0.9-0.3c0.2-0.2,0.3-0.5,0.3-0.9c0-0.3-0.1-0.6-0.3-0.9C130.5,68.1,130.3,68,129.9,68z"/>
		<path class="st5" d="M134.3,68.3c-0.2-0.2-0.5-0.3-0.9-0.3c-0.4,0-0.7,0.1-0.9,0.3c-0.2,0.2-0.3,0.5-0.3,0.9
			c0,0.3,0.1,0.6,0.3,0.9c0.2,0.2,0.5,0.3,0.9,0.3c0.4,0,0.7-0.1,0.9-0.3c0.2-0.2,0.3-0.5,0.3-0.9C134.6,68.8,134.5,68.5,134.3,68.3
			z"/>
	</g>
</g>
</svg>
